<svg xmlns="http://www.w3.org/2000/svg" version="1.1" xmlns:xlink="http://www.w3.org/1999/xlink" xmlns:svgjs="http://svgjs.com/svgjs" width="1440" height="560" preserveAspectRatio="none" viewBox="0 0 1440 560"><g mask="url(&quot;#SvgjsMask1021&quot;)" fill="none"><rect width="1440" height="560" x="0" y="0" fill="rgba(0, 0, 0, 1)"></rect><path d="M1287.879,488.517C1327.034,487.642,1364.19,468.951,1383.475,434.863C1402.487,401.258,1397.449,360.966,1379.33,326.871C1359.827,290.172,1329.357,257.573,1287.879,254.979C1242.202,252.122,1196.581,274.118,1174.207,314.042C1152.253,353.217,1160.066,401.684,1184.58,439.31C1206.894,473.56,1247.011,489.431,1287.879,488.517" fill="rgba(6, 27, 108, 0.4)" class="triangle-float3"></path><path d="M667.943,59.565C691.15,60.98,715.088,50.35,725.761,29.694C735.816,10.233,725.225,-11.468,714.52,-30.579C703.458,-50.328,690.525,-71.975,667.943,-73.532C643.308,-75.231,619.468,-60.111,608.729,-37.874C599.027,-17.785,609.586,4.251,621.171,23.316C632.15,41.383,646.841,58.278,667.943,59.565" fill="rgba(6, 27, 108, 0.4)" class="triangle-float3"></path><path d="M633.565,715.361C690.662,718.578,745.065,687.55,773.739,638.07C802.491,588.456,799.988,527.27,771.362,477.583C742.689,427.816,690.972,396.596,633.565,394.771C572.672,392.835,507.105,413.895,479.708,468.311C453.987,519.397,488.079,575.129,518.315,623.68C546.129,668.341,581.034,712.402,633.565,715.361" fill="rgba(6, 27, 108, 0.4)" class="triangle-float2"></path><path d="M213.663,466.189C269.862,462.59,310.043,418.753,338.788,370.328C368.349,320.528,391.243,262.303,365.475,210.438C337.261,153.65,276.971,114.873,213.663,118.481C154.935,121.828,118.617,175.289,89.13,226.187C59.534,277.273,30.126,335.948,57.318,388.353C86.056,443.737,151.395,470.177,213.663,466.189" fill="rgba(6, 27, 108, 0.4)" class="triangle-float3"></path><path d="M1220.874,484.476C1239.876,484.347,1259.944,477.731,1268.479,460.754C1276.461,444.878,1266.418,427.485,1257.148,412.326C1248.443,398.091,1237.557,383.2,1220.874,382.906C1203.831,382.605,1191.303,396.523,1182.312,411.005C1172.623,426.611,1163.602,445.141,1172.139,461.406C1181.092,478.463,1201.61,484.606,1220.874,484.476" fill="rgba(6, 27, 108, 0.4)" class="triangle-float2"></path><path d="M277.46,115.106C297.779,114.773,312.929,98.262,322.46,80.314C331.319,63.63,333.803,43.61,323.999,27.463C314.512,11.838,295.722,7,277.46,6.197C257.199,5.306,234.054,5.871,223.247,23.033C211.983,40.92,219.105,63.617,229.83,81.832C240.362,99.72,256.705,115.446,277.46,115.106" fill="rgba(6, 27, 108, 0.4)" class="triangle-float3"></path><path d="M1008.275,379.131C1054.125,377.977,1098.683,362.585,1124.545,324.707C1154.296,281.133,1170.139,225.018,1145.269,178.485C1119.26,129.821,1063.441,105.986,1008.275,107.161C955.16,108.292,907.242,137.902,881.03,184.113C855.17,229.704,852.766,286.928,881.408,330.825C907.911,371.443,959.79,380.351,1008.275,379.131" fill="rgba(6, 27, 108, 0.4)" class="triangle-float3"></path><path d="M1071.252,289.404C1091.407,289.068,1103.247,268.733,1112.356,250.751C1120.371,234.928,1123.857,217.092,1115.917,201.232C1107.075,183.57,1091.004,168.565,1071.252,168.649C1051.608,168.733,1036.324,184.191,1027.241,201.609C1018.889,217.624,1019.608,236.016,1027.702,252.163C1036.876,270.464,1050.783,289.746,1071.252,289.404" fill="rgba(6, 27, 108, 0.4)" class="triangle-float1"></path><path d="M1101.543,96.35C1117.94,94.973,1126.86,78.831,1134.664,64.344C1141.909,50.895,1148.683,35.633,1141.521,22.14C1134.019,8.006,1117.545,2.002,1101.543,1.945C1085.428,1.888,1069.796,8.306,1061.068,21.853C1051.556,36.616,1048.761,55.423,1057.145,70.854C1065.877,86.926,1083.316,97.881,1101.543,96.35" fill="rgba(6, 27, 108, 0.4)" class="triangle-float2"></path><path d="M1112.936,750.678C1163.264,749.472,1207.184,719.95,1232.813,676.62C1258.964,632.408,1266.038,578.305,1241.625,533.11C1216.037,485.74,1166.771,455.385,1112.936,454.694C1057.903,453.987,1005.702,481.945,978.393,529.73C951.281,577.17,954.262,635.942,982.681,682.611C1009.99,727.458,1060.444,751.935,1112.936,750.678" fill="rgba(6, 27, 108, 0.4)" class="triangle-float3"></path></g><defs><mask id="SvgjsMask1021"><rect width="1440" height="560" fill="#ffffff"></rect></mask><style>
            @keyframes float1 {
                0%{transform: translate(0, 0)}
                50%{transform: translate(-10px, 0)}
                100%{transform: translate(0, 0)}
            }

            .triangle-float1 {
                animation: float1 5s infinite;
            }

            @keyframes float2 {
                0%{transform: translate(0, 0)}
                50%{transform: translate(-5px, -5px)}
                100%{transform: translate(0, 0)}
            }

            .triangle-float2 {
                animation: float2 4s infinite;
            }

            @keyframes float3 {
                0%{transform: translate(0, 0)}
                50%{transform: translate(0, -10px)}
                100%{transform: translate(0, 0)}
            }

            .triangle-float3 {
                animation: float3 6s infinite;
            }
        </style></defs></svg>